#!OML:ASF I:\Actors\actors\Patient Classification 2\Patient 1\Session 1\actor1.ASF
:FULLY-SPECIFIED
:DEGREES
243
root -0.889475 18.7219 5.69921 3.47224 -5.00008 -3.70041
lowerback 8.33197 0.285138 -0.424847
upperback 2.35761 0.343079 0.119614
thorax -2.23471 0.170117 0.327566
lowerneck 0.535732 0.462517 -0.318257
upperneck 9.3381 0.265748 4.42609
head 2.88047 0.252629 1.49085
rclavicle 9.14409e-015 -1.98785e-015
rhumerus 6.42186 26.5242 -31.2313
rradius 138.147
rwrist -64.8312
rhand 16.7664 -54.7564
rfingers 7.12502
rthumb 41.5117 -79.5079
lclavicle 9.14409e-015 -1.98785e-015
lhumerus -46.8228 1.59519 83.3755
lradius 49.2293
lwrist -0.741576
lhand -6.63406 -24.3699
lfingers 7.12502
lthumb 19.2227 4.7001
rfemur 0 0 0
rtibia 0
rfoot 0 0
rtoes 0
lfemur -6.8055 -3.8021 -9.75785
ltibia 22.8001
lfoot -23.2096 15.4598
ltoes -55.4274
244
root -0.888667 18.7219 5.687 3.49686 -5.08189 -3.69782
lowerback 8.5091 0.27014 -0.479442
upperback 2.52403 0.317337 0.110985
thorax -2.1609 0.156729 0.351649
lowerneck 0.331465 0.461144 -0.0539262
upperneck 9.15095 0.283255 4.16106
head 2.85241 0.262039 1.35734
rclavicle 3.08116e-015 2.78299e-015
rhumerus 6.77374 26.0335 -30.8124
rradius 138.621
rwrist -64.9539
rhand 16.6254 -54.7862
rfingers 7.12502
rthumb 41.3793 -79.5808
lclavicle 3.08116e-015 2.78299e-015
lhumerus -46.5545 1.68142 83.2894
lradius 49.2049
lwrist -0.806282
lhand -6.544 -24.3689
lfingers 7.12502
lthumb 19.3093 4.6924
rfemur 0 0 0
rtibia 0
rfoot 0 0
rtoes 0
lfemur -6.84964 -3.82508 -9.76307
ltibia 22.787
lfoot -23.2492 15.5211
ltoes -55.3415
245
root -0.886757 18.7226 5.67665 3.50277 -5.18835 -3.63209
lowerback 8.66464 0.256335 -0.597487
upperback 2.64204 0.28755 0.0946746
thorax -2.12517 0.14151 0.403921
lowerneck 0.267263 0.483179 0.0343853
upperneck 9.00576 0.325211 4.02832
head 2.81336 0.280533 1.29821
rclavicle -8.84592e-015 7.15625e-015
rhumerus 7.18028 25.5993 -30.3843
rradius 138.959
rwrist -65.2386
rhand 16.4456 -54.8998
rfingers 7.12502
rthumb 41.2106 -79.7489
lclavicle -8.84592e-015 7.15625e-015
lhumerus -46.4092 1.7802 83.2003
lradius 49.1719
lwrist -0.874103
lhand -6.47956 -24.3687
lfingers 7.12502
lthumb 19.3713 4.68641
rfemur 0 0 0
rtibia 0
rfoot 0 0
rtoes 0
lfemur -6.86496 -3.82066 -9.84723
ltibia 22.777
lfoot -23.3304 15.5673
ltoes -55.2832
246
root -0.883917 18.7231 5.66564 3.50587 -5.28426 -3.56473
lowerback 8.86233 0.266232 -0.676016
upperback 2.6915 0.291611 0.0665332
thorax -2.18356 0.143552 0.417994
lowerneck 0.245007 0.50189 -0.0570488
upperneck 8.97436 0.343662 4.1529
head 2.80708 0.290193 1.355
rclavicle 1.88845e-015 -2.22639e-014
rhumerus 7.52596 25.2091 -29.967
rradius 139.178
rwrist -65.4055
rhand 16.334 -54.7114
rfingers 7.12502
rthumb 41.1058 -79.594
lclavicle 1.88845e-015 -2.22639e-014
lhumerus -46.3752 1.71468 83.166
lradius 49.154
lwrist -0.878499
lhand -6.52696 -24.4115
lfingers 7.12502
lthumb 19.3257 4.64822
rfemur 0 0 0
rtibia 0
rfoot 0 0
rtoes 0
lfemur -6.88734 -3.79337 -9.92917
ltibia 22.769
lfoot -23.3739 15.5869
ltoes -55.207
247
root -0.881259 18.7237 5.65348 3.52227 -5.32327 -3.53609
lowerback 9.08279 0.27003 -0.714247
upperback 2.71025 0.290901 0.0487441
thorax -2.28599 0.143451 0.420426
lowerneck 0.254317 0.488946 -0.151457
upperneck 8.90486 0.319237 4.30937
head 2.78339 0.278622 1.42107
rclavicle -6.36111e-015 -1.19271e-015
rhumerus 7.75996 24.8943 -29.6237
rradius 139.424
rwrist -65.3081
rhand 16.2062 -54.5057
rfingers 7.12502
rthumb 40.9858 -79.4265
lclavicle -6.36111e-015 -1.19271e-015
lhumerus -46.394 1.6051 83.1656
lradius 49.1871
lwrist -0.836742
lhand -6.59309 -24.3012
lfingers 7.12502
lthumb 19.2621 4.76484
rfemur 0 0 0
rtibia 0
rfoot 0 0
rtoes 0
lfemur -6.94275 -3.74969 -9.95931
ltibia 22.7665
lfoot -23.3374 15.5914
ltoes -55.1742
248
root -0.878138 18.7245 5.64152 3.55203 -5.33557 -3.47238
lowerback 9.23763 0.240548 -0.802784
upperback 2.72667 0.241826 0.0296148
thorax -2.35409 0.119311 0.455362
lowerneck 0.410039 0.492873 -0.195603
upperneck 8.71474 0.33015 4.36277
head 2.69079 0.279875 1.44254
rclavicle 1.18277e-014 -1.98785e-014
rhumerus 8.03905 24.6359 -29.3022
rradius 139.666
rwrist -65.1305
rhand 16.1629 -54.5289
rfingers 7.12502
rthumb 40.9451 -79.4627
lclavicle 1.18277e-014 -1.98785e-014
lhumerus -46.4594 1.60131 83.1332
lradius 49.2572
lwrist -0.836579
lhand -6.57154 -24.172
lfingers 7.12502
lthumb 19.2829 4.89195
rfemur 0 0 0
rtibia 0
rfoot 0 0
rtoes 0
lfemur -7.02211 -3.7067 -10.0304
ltibia 22.77
lfoot -23.2687 15.616
ltoes -55.2032
249
root -0.874177 18.7238 5.63075 3.53832 -5.37586 -3.42318
lowerback 9.38383 0.210024 -0.86977
upperback 2.78715 0.193148 0.00696265
thorax -2.3716 0.0949967 0.474781
lowerneck 0.555725 0.52797 -0.179438
upperneck 8.53314 0.385659 4.35354
head 2.60169 0.303554 1.4341
rclavicle -4.87022e-015 2.06736e-014
rhumerus 8.37619 24.3002 -28.9655
rradius 139.837
rwrist -65.0537
rhand 16.1257 -54.4463
rfingers 7.12502
rthumb 40.9102 -79.3911
lclavicle -4.87022e-015 2.06736e-014
lhumerus -46.4898 1.60754 83.0801
lradius 49.3259
lwrist -0.841811
lhand -6.52552 -24.1768
lfingers 7.12502
lthumb 19.3271 4.88276
rfemur 0 0 0
rtibia 0
rfoot 0 0
rtoes 0
lfemur -7.04665 -3.63071 -10.0912
ltibia 22.7757
lfoot -23.1927 15.6127
ltoes -55.2228
250
root -0.870365 18.7226 5.61955 3.49757 -5.42331 -3.38166
lowerback 9.57061 0.201615 -0.945391
upperback 2.87281 0.172716 -0.00469224
thorax -2.38577 0.0845696 0.507306
lowerneck 0.539731 0.551767 -0.15384
upperneck 8.45296 0.420909 4.33715
head 2.57676 0.320471 1.42405
rclavicle 8.54774e-015 -9.54166e-015
rhumerus 8.65615 23.9036 -28.6633
rradius 139.981
rwrist -65.023
rhand 16.0428 -54.2596
rfingers 7.12502
rthumb 40.8323 -79.2291
lclavicle 8.54774e-015 -9.54166e-015
lhumerus -46.4617 1.53734 83.086
lradius 49.3894
lwrist -0.767716
lhand -6.49888 -24.1968
lfingers 7.12502
lthumb 19.3527 4.86022
rfemur 0 0 0
rtibia 0
rfoot 0 0
rtoes 0
lfemur -7.04176 -3.58438 -10.1455
ltibia 22.7779
lfoot -23.1666 15.6087
ltoes -55.2039
251
root -0.867063 18.7231 5.60778 3.49319 -5.4495 -3.29216
lowerback 9.75534 0.18595 -1.09191
upperback 2.93277 0.135894 -0.00463198
thorax -2.42509 0.0662611 0.593802
lowerneck 0.479109 0.568544 -0.14347
upperneck 8.39722 0.449046 4.2734
head 2.56816 0.332937 1.40187
rclavicle -1.16289e-014 6.36111e-015
rhumerus 8.92116 23.5364 -28.3952
rradius 140.116
rwrist -64.9516
rhand 16.2254 -54.2198
rfingers 7.12502
rthumb 41.0038 -79.1349
lclavicle -1.16289e-014 6.36111e-015
lhumerus -46.448 1.47311 83.1414
lradius 49.4691
lwrist -0.618668
lhand -6.49738 -24.1849
lfingers 7.12502
lthumb 19.3542 4.87193
rfemur 0 0 0
rtibia 0
rfoot 0 0
rtoes 0
lfemur -7.07942 -3.55385 -10.2503
ltibia 22.7731
lfoot -23.1545 15.6028
ltoes -55.1788
252
root -0.864091 18.7238 5.5972 3.50577 -5.47627 -3.24545
lowerback 9.9172 0.156941 -1.20913
upperback 2.96497 0.0844292 0.0109191
thorax -2.48 0.0408655 0.68176
lowerneck 0.473688 0.594567 -0.156524
upperneck 8.36037 0.490295 4.20295
head 2.55552 0.350621 1.38163
rclavicle 7.35503e-015 7.95139e-016
rhumerus 9.23708 23.2081 -28.0917
rradius 140.212
rwrist -64.8758
rhand 16.5106 -54.2237
rfingers 7.12502
rthumb 41.2716 -79.0531
lclavicle 7.35503e-015 7.95139e-016
lhumerus -46.4795 1.51021 83.1619
lradius 49.5377
lwrist -0.537557
lhand -6.54593 -24.1895
lfingers 7.12502
lthumb 19.3075 4.87199
rfemur 0 0 0
rtibia 0
rfoot 0 0
rtoes 0
lfemur -7.12573 -3.44046 -10.2992
ltibia 22.7672
lfoot -23.0982 15.5426
ltoes -55.1791
253
root -0.861012 18.7239 5.58732 3.53018 -5.517 -3.23131
lowerback 10.0411 0.148293 -1.30018
upperback 2.99604 0.0625894 0.0216588
thorax -2.51554 0.0300946 0.746692
lowerneck 0.484584 0.61181 -0.206396
upperneck 8.31863 0.512688 4.24809
head 2.53923 0.360747 1.40477
rclavicle 1.20265e-014 -1.03368e-014
rhumerus 9.48392 22.8767 -27.8139
rradius 140.267
rwrist -64.6879
rhand 16.644 -54.0919
rfingers 7.12502
rthumb 41.3968 -78.8809
lclavicle 1.20265e-014 -1.03368e-014
lhumerus -46.4571 1.60489 83.1422
lradius 49.4849
lwrist -0.716111
lhand -6.72498 -24.3753
lfingers 7.12502
lthumb 19.1353 4.70338
rfemur 0 0 0
rtibia 0
rfoot 0 0
rtoes 0
lfemur -7.1849 -3.3615 -10.3133
ltibia 22.7706
lfoot -23.0584 15.5228
ltoes -55.17
254
root -0.856798 18.7249 5.5783 3.58194 -5.54408 -3.1929
lowerback 10.1199 0.153462 -1.37272
upperback 3.04451 0.0607662 0.00807761
thorax -2.50858 0.0289224 0.773676
lowerneck 0.414181 0.6232 -0.327283
upperneck 8.24335 0.518886 4.44201
head 2.52758 0.365253 1.48874
rclavicle 4.77083e-015 1.27222e-014
rhumerus 9.67354 22.5161 -27.6635
rradius 140.211
rwrist -64.4082
rhand 16.7103 -53.8595
rfingers 7.12502
rthumb 41.459 -78.6282
lclavicle 4.77083e-015 1.27222e-014
lhumerus -46.3419 1.59651 83.144
lradius 49.3243
lwrist -0.992553
lhand -6.99993 -24.6909
lfingers 7.12502
lthumb 18.8709 4.41376
rfemur 0 0 0
rtibia 0
rfoot 0 0
rtoes 0
lfemur -7.27993 -3.36422 -10.365
ltibia 22.7839
lfoot -23.0369 15.5686
ltoes -55.1642
